<svg width="609" height="609" viewBox="0 0 609 609" fill="none" xmlns="http://www.w3.org/2000/svg">
<path d="M23.8171 -0.00512695H585.01C585.791 -0.00512695 586.567 0.031331 587.343 0.109456C588.119 0.187582 588.89 0.302165 589.656 0.453206C590.421 0.604248 591.176 0.791748 591.926 1.02091C592.671 1.24487 593.406 1.5105 594.124 1.80737C594.848 2.10425 595.551 2.43758 596.239 2.80737C596.926 3.17717 597.598 3.57821 598.244 4.0105C598.895 4.44279 599.52 4.90633 600.124 5.40112C600.729 5.89592 601.301 6.42196 601.854 6.97404C602.406 7.52612 602.932 8.09904 603.426 8.70321C603.921 9.30737 604.385 9.93237 604.817 10.5834C605.249 11.2292 605.65 11.9011 606.02 12.5886C606.39 13.2761 606.723 13.9792 607.02 14.7032C607.317 15.422 607.583 16.1563 607.807 16.9011C608.036 17.6511 608.223 18.4063 608.374 19.172C608.525 19.9376 608.64 20.7084 608.718 21.4845C608.796 22.2605 608.833 23.0365 608.833 23.8178V585.01C608.833 585.792 608.796 586.568 608.718 587.344C608.64 588.125 608.525 588.896 608.374 589.656C608.223 590.422 608.036 591.182 607.807 591.927C607.583 592.672 607.317 593.406 607.02 594.13C606.723 594.849 606.39 595.552 606.02 596.24C605.65 596.927 605.249 597.599 604.817 598.245C604.385 598.896 603.921 599.521 603.426 600.125C602.932 600.729 602.406 601.307 601.854 601.854C601.301 602.406 600.729 602.932 600.124 603.427C599.52 603.922 598.895 604.385 598.244 604.818C597.598 605.255 596.926 605.651 596.239 606.021C595.551 606.391 594.848 606.724 594.124 607.021C593.406 607.318 592.671 607.583 591.926 607.807C591.176 608.037 590.421 608.224 589.656 608.375C588.89 608.526 588.119 608.641 587.343 608.719C586.567 608.797 585.791 608.833 585.01 608.833H23.8171C23.0358 608.833 22.2598 608.797 21.4837 608.719C20.7077 608.641 19.9368 608.526 19.1712 608.375C18.4056 608.224 17.6504 608.037 16.9004 607.807C16.1556 607.583 15.4212 607.318 14.7025 607.021C13.9785 606.724 13.2754 606.391 12.5879 606.021C11.9004 605.651 11.2285 605.255 10.5827 604.818C9.93164 604.385 9.30664 603.922 8.70247 603.427C8.09831 602.932 7.52539 602.406 6.97331 601.854C6.42122 601.307 5.89518 600.729 5.40039 600.125C4.9056 599.521 4.44206 598.896 4.00977 598.245C3.57748 597.599 3.17643 596.927 2.80664 596.24C2.43685 595.552 2.10352 594.849 1.80664 594.13C1.50976 593.406 1.24414 592.672 1.02018 591.927C0.791016 591.182 0.603515 590.422 0.452474 589.656C0.301431 588.896 0.186849 588.125 0.108724 587.344C0.0306 586.568 -0.00585938 585.792 -0.00585938 585.01V23.8178C-0.00585938 23.0365 0.0306 22.2605 0.108724 21.4845C0.186849 20.7084 0.301431 19.9376 0.452474 19.172C0.603515 18.4063 0.791016 17.6511 1.02018 16.9011C1.24414 16.1563 1.50976 15.422 1.80664 14.7032C2.10352 13.9792 2.43685 13.2761 2.80664 12.5886C3.17643 11.9011 3.57748 11.2292 4.00977 10.5834C4.44206 9.93237 4.9056 9.30737 5.40039 8.70321C5.89518 8.09904 6.42122 7.52612 6.97331 6.97404C7.52539 6.42196 8.09831 5.89592 8.70247 5.40112C9.30664 4.90633 9.93164 4.44279 10.5827 4.0105C11.2285 3.57821 11.9004 3.17717 12.5879 2.80737C13.2754 2.43758 13.9785 2.10425 14.7025 1.80737C15.4212 1.5105 16.1556 1.24487 16.9004 1.02091C17.6504 0.791748 18.4056 0.604248 19.1712 0.453206C19.9368 0.302165 20.7077 0.187582 21.4837 0.109456C22.2598 0.031331 23.0358 -0.00512695 23.8171 -0.00512695Z" fill="#1A338A"/>
</svg>
