<svg width="25" height="26" viewBox="0 0 25 26" fill="none" xmlns="http://www.w3.org/2000/svg">
<path d="M21.8093 0.464844H2.73141C2.04144 0.464844 1.37973 0.751248 0.891852 1.26105C0.403971 1.77085 0.129883 2.46229 0.129883 3.18326L0.129883 23.1183C0.129883 23.8393 0.403971 24.5307 0.891852 25.0405C1.37973 25.5503 2.04144 25.8367 2.73141 25.8367H10.1701V17.2109H6.75564V13.1508H10.1701V10.0563C10.1701 6.53654 12.1755 4.59231 15.2469 4.59231C16.7179 4.59231 18.256 4.86641 18.256 4.86641V8.32107H16.5612C14.8914 8.32107 14.3705 9.4039 14.3705 10.5145V13.1508H18.0983L17.5021 17.2109H14.3705V25.8367H21.8093C22.4992 25.8367 23.1609 25.5503 23.6488 25.0405C24.1367 24.5307 24.4108 23.8393 24.4108 23.1183V3.18326C24.4108 2.46229 24.1367 1.77085 23.6488 1.26105C23.1609 0.751248 22.4992 0.464844 21.8093 0.464844Z" fill="#484848"/>
</svg>
