<svg width="26" height="26" viewBox="0 0 26 26" fill="none" xmlns="http://www.w3.org/2000/svg">
<path d="M22.5302 0.464844H3.43839C2.74792 0.464844 2.08573 0.751248 1.59749 1.26105C1.10925 1.77085 0.834961 2.46229 0.834961 3.18326L0.834961 23.1183C0.834961 23.8393 1.10925 24.5307 1.59749 25.0405C2.08573 25.5503 2.74792 25.8367 3.43839 25.8367H10.8826V17.2109H7.46557V13.1508H10.8826V10.0563C10.8826 6.53654 12.8894 4.59231 15.9631 4.59231C17.4351 4.59231 18.9744 4.86641 18.9744 4.86641V8.32107H17.2783C15.6073 8.32107 15.086 9.4039 15.086 10.5145V13.1508H18.8165L18.2199 17.2109H15.086V25.8367H22.5302C23.2207 25.8367 23.8829 25.5503 24.3711 25.0405C24.8594 24.5307 25.1336 23.8393 25.1336 23.1183V3.18326C25.1336 2.46229 24.8594 1.77085 24.3711 1.26105C23.8829 0.751248 23.2207 0.464844 22.5302 0.464844Z" fill="#484848"/>
</svg>
