<svg width="25" height="26" viewBox="0 0 25 26" fill="none" xmlns="http://www.w3.org/2000/svg">
<path d="M12.2157 0.464966C8.91299 0.464966 8.50138 0.481618 7.20883 0.538712C5.91097 0.605322 5.03307 0.815459 4.25845 1.12948C3.44773 1.44906 2.71352 1.94942 2.10699 2.59568C1.48634 3.22751 1.00688 3.99458 0.702808 4.84216C0.402074 5.65099 0.200825 6.56767 0.137033 7.92285C0.0785571 9.27328 0.0664062 9.70228 0.0664062 13.1509C0.0664062 16.5995 0.0823543 17.0293 0.137033 18.379C0.200825 19.7302 0.402074 20.6508 0.702808 21.4597C1.00887 22.3062 1.48807 23.0728 2.10699 23.7061C2.7121 24.3542 3.44672 24.8548 4.25845 25.1723C5.03307 25.4824 5.91477 25.6965 7.20883 25.7631C8.50214 25.8242 8.91299 25.8368 12.2157 25.8368C15.5185 25.8368 15.9301 25.8202 17.2227 25.7631C18.5167 25.6965 19.3984 25.4816 20.173 25.1723C20.9838 24.8528 21.718 24.3524 22.3245 23.7061C22.946 23.075 23.4255 22.3077 23.7287 21.4597C24.0256 20.6508 24.2307 19.7302 24.2945 18.379C24.3529 17.0285 24.3651 16.5995 24.3651 13.1509C24.3651 9.70228 24.3491 9.27249 24.2945 7.92285C24.2307 6.57163 24.0249 5.64623 23.7287 4.84216C23.4226 3.99564 22.9434 3.22899 22.3245 2.59568C21.7201 1.94678 20.9852 1.44601 20.173 1.12948C19.3984 0.815459 18.5167 0.605322 17.2227 0.538712C15.9294 0.477653 15.5185 0.464966 12.2157 0.464966ZM12.2157 2.74872C15.4593 2.74872 15.8466 2.76537 17.1285 2.82247C18.3109 2.88035 18.9549 3.08653 19.3825 3.26098C19.9111 3.46471 20.3895 3.78898 20.7829 4.21017C21.1855 4.6192 21.4949 5.1176 21.6881 5.66844C21.8552 6.11488 22.0526 6.78732 22.1081 8.02197C22.1627 9.36051 22.1787 9.76572 22.1787 13.1517C22.1787 16.5377 22.1627 16.9429 22.1035 18.2814C22.0397 19.5161 21.8423 20.1885 21.676 20.635C21.4458 21.2305 21.1892 21.6468 20.7654 22.0972C20.3707 22.5157 19.8926 22.8385 19.365 23.0424C18.9428 23.2169 18.2897 23.423 17.1027 23.4809C15.8139 23.538 15.4342 23.5547 12.1823 23.5547C8.93046 23.5547 8.5515 23.538 7.26123 23.4762C6.0788 23.4096 5.42646 23.2034 4.9989 23.0297C4.42173 22.7895 4.02607 22.5214 3.60231 22.079C3.17475 21.6325 2.90287 21.2075 2.69327 20.6167C2.52316 20.1758 2.32874 19.4939 2.26571 18.2545C2.22242 16.9247 2.20192 16.5123 2.20192 13.1327C2.20192 9.75461 2.22242 9.34148 2.26571 7.99501C2.32874 6.7556 2.52316 6.07523 2.69327 5.63275C2.90287 5.0293 3.17551 4.61696 3.60231 4.17052C4.02531 3.72883 4.42173 3.44336 4.9989 3.21975C5.42646 3.04608 6.06286 2.83991 7.24984 2.77806C8.53859 2.72969 8.91831 2.71224 12.1656 2.71224L12.2157 2.74872ZM12.2157 6.63983C11.3966 6.63951 10.5854 6.80776 9.82853 7.13494C9.07166 7.46212 8.38396 7.94183 7.80472 8.54665C7.22549 9.15147 6.76607 9.86954 6.45273 10.6598C6.13939 11.4501 5.97826 12.2971 5.97856 13.1525C5.97826 14.0078 6.13939 14.8549 6.45273 15.6452C6.76607 16.4354 7.22549 17.1535 7.80472 17.7583C8.38396 18.3632 9.07166 18.8429 9.82853 19.17C10.5854 19.4972 11.3966 19.6655 12.2157 19.6652C13.0349 19.6655 13.8461 19.4972 14.603 19.17C15.3598 18.8429 16.0475 18.3632 16.6268 17.7583C17.206 17.1535 17.6654 16.4354 17.9788 15.6452C18.2921 14.8549 18.4532 14.0078 18.4529 13.1525C18.4532 12.2971 18.2921 11.4501 17.9788 10.6598C17.6654 9.86954 17.206 9.15147 16.6268 8.54665C16.0475 7.94183 15.3598 7.46212 14.603 7.13494C13.8461 6.80776 13.0349 6.63951 12.2157 6.63983ZM12.2157 17.3814C9.97695 17.3814 8.16571 15.4902 8.16571 13.1525C8.16571 10.8148 9.97695 8.92358 12.2157 8.92358C14.4545 8.92358 16.2658 10.8148 16.2658 13.1525C16.2658 15.4902 14.4545 17.3814 12.2157 17.3814ZM20.1624 6.37973C20.162 6.78388 20.008 7.17133 19.7341 7.45696C19.4603 7.74259 19.0891 7.90303 18.702 7.90303C18.5106 7.90303 18.3211 7.86367 18.1443 7.7872C17.9675 7.71072 17.8069 7.59863 17.6715 7.45733C17.5362 7.31603 17.4289 7.14827 17.3556 6.96365C17.2824 6.77903 17.2447 6.58115 17.2447 6.38132C17.2447 6.18148 17.2824 5.98361 17.3556 5.79899C17.4289 5.61436 17.5362 5.44661 17.6715 5.30531C17.8069 5.164 17.9675 5.05191 18.1443 4.97544C18.3211 4.89897 18.5106 4.85961 18.702 4.85961C19.5047 4.85961 20.1624 5.54156 20.1624 6.37973Z" fill="#484848"/>
</svg>
