<svg width="25" height="26" viewBox="0 0 25 26" fill="none" xmlns="http://www.w3.org/2000/svg">
<path d="M12.4295 0.464844C9.12917 0.464844 8.71786 0.481496 7.42626 0.53859C6.12935 0.6052 5.25209 0.815337 4.47804 1.12935C3.66792 1.44894 2.93424 1.9493 2.32815 2.59556C1.70796 3.22739 1.22885 3.99446 0.924998 4.84204C0.624484 5.65087 0.423383 6.56754 0.359638 7.92273C0.301204 9.27316 0.289062 9.70216 0.289062 13.1508C0.289062 16.5994 0.304999 17.0292 0.359638 18.3788C0.423383 19.7301 0.624484 20.6507 0.924998 21.4595C1.23084 22.3061 1.70968 23.0727 2.32815 23.706C2.93282 24.3541 3.66691 24.8547 4.47804 25.1722C5.25209 25.4823 6.13314 25.6964 7.42626 25.763C8.71862 25.824 9.12917 25.8367 12.4295 25.8367C15.7298 25.8367 16.1412 25.8201 17.4328 25.763C18.7259 25.6964 19.6069 25.4815 20.381 25.1722C21.1911 24.8526 21.9248 24.3523 22.5309 23.706C23.1519 23.0749 23.6311 22.3076 23.934 21.4595C24.2307 20.6507 24.4356 19.7301 24.4994 18.3788C24.5578 17.0284 24.57 16.5994 24.57 13.1508C24.57 9.70216 24.554 9.27237 24.4994 7.92273C24.4356 6.57151 24.23 5.64611 23.934 4.84204C23.6282 3.99551 23.1493 3.22887 22.5309 2.59556C21.9269 1.94666 21.1926 1.44589 20.381 1.12935C19.6069 0.815337 18.7259 0.6052 17.4328 0.53859C16.1404 0.477531 15.7298 0.464844 12.4295 0.464844ZM12.4295 2.7486C15.6707 2.7486 16.0577 2.76525 17.3387 2.82235C18.5202 2.88023 19.1637 3.0864 19.591 3.26086C20.1192 3.46459 20.5972 3.78886 20.9904 4.21004C21.3927 4.61908 21.7019 5.11748 21.8949 5.66832C22.0619 6.11476 22.2592 6.7872 22.3146 8.02185C22.3692 9.36039 22.3852 9.76559 22.3852 13.1516C22.3852 16.5376 22.3692 16.9428 22.31 18.2813C22.2463 19.516 22.049 20.1884 21.8828 20.6348C21.6529 21.2304 21.3964 21.6467 20.9729 22.0971C20.5785 22.5156 20.1007 22.8383 19.5735 23.0423C19.1516 23.2168 18.499 23.4229 17.3129 23.4808C16.025 23.5379 15.6456 23.5546 12.3961 23.5546C9.14663 23.5546 8.76795 23.5379 7.47862 23.4761C6.29706 23.4094 5.64519 23.2033 5.21794 23.0296C4.6412 22.7893 4.24583 22.5213 3.82237 22.0788C3.39513 21.6324 3.12345 21.2074 2.914 20.6166C2.74402 20.1757 2.54974 19.4938 2.48676 18.2543C2.4435 16.9245 2.42301 16.5122 2.42301 13.1325C2.42301 9.75449 2.4435 9.34136 2.48676 7.99489C2.54974 6.75548 2.74402 6.07511 2.914 5.63263C3.12345 5.02918 3.39589 4.61684 3.82237 4.17039C4.24507 3.72871 4.6412 3.44324 5.21794 3.21962C5.64519 3.04596 6.28112 2.83979 7.46724 2.77794C8.75505 2.72957 9.13448 2.71212 12.3794 2.71212L12.4295 2.7486ZM12.4295 6.63971C11.6109 6.63939 10.8003 6.80763 10.044 7.13482C9.28772 7.462 8.60053 7.9417 8.02171 8.54652C7.4429 9.15134 6.98382 9.86942 6.67071 10.6597C6.3576 11.45 6.19659 12.297 6.19689 13.1524C6.19659 14.0077 6.3576 14.8547 6.67071 15.645C6.98382 16.4353 7.4429 17.1534 8.02171 17.7582C8.60053 18.363 9.28772 18.8427 10.044 19.1699C10.8003 19.4971 11.6109 19.6653 12.4295 19.665C13.2481 19.6653 14.0587 19.4971 14.815 19.1699C15.5713 18.8427 16.2585 18.363 16.8373 17.7582C17.4161 17.1534 17.8752 16.4353 18.1883 15.645C18.5014 14.8547 18.6624 14.0077 18.6621 13.1524C18.6624 12.297 18.5014 11.45 18.1883 10.6597C17.8752 9.86942 17.4161 9.15134 16.8373 8.54652C16.2585 7.9417 15.5713 7.462 14.815 7.13482C14.0587 6.80763 13.2481 6.63939 12.4295 6.63971ZM12.4295 17.3813C10.1924 17.3813 8.38244 15.49 8.38244 13.1524C8.38244 10.8147 10.1924 8.92346 12.4295 8.92346C14.6667 8.92346 16.4766 10.8147 16.4766 13.1524C16.4766 15.49 14.6667 17.3813 12.4295 17.3813ZM20.3704 6.37961C20.37 6.78376 20.216 7.17121 19.9424 7.45684C19.6688 7.74247 19.2978 7.90291 18.911 7.90291C18.7198 7.90291 18.5304 7.86355 18.3538 7.78707C18.1771 7.7106 18.0165 7.59851 17.8813 7.45721C17.7461 7.3159 17.6388 7.14815 17.5656 6.96353C17.4924 6.77891 17.4548 6.58103 17.4548 6.3812C17.4548 6.18136 17.4924 5.98349 17.5656 5.79886C17.6388 5.61424 17.7461 5.44649 17.8813 5.30518C18.0165 5.16388 18.1771 5.05179 18.3538 4.97532C18.5304 4.89885 18.7198 4.85949 18.911 4.85949C19.7132 4.85949 20.3704 5.54144 20.3704 6.37961Z" fill="#484848"/>
</svg>
