<svg width="26" height="26" viewBox="0 0 26 26" fill="none" xmlns="http://www.w3.org/2000/svg">
<path fill-rule="evenodd" clip-rule="evenodd" d="M0.850586 2.58455C0.850586 2.02237 1.06431 1.48322 1.44474 1.08569C1.82517 0.688172 2.34114 0.464847 2.87914 0.464847H23.1007C23.3673 0.464392 23.6314 0.518892 23.8779 0.625228C24.1243 0.731563 24.3482 0.887646 24.5369 1.08454C24.7255 1.28143 24.8751 1.51527 24.9771 1.77266C25.0792 2.03006 25.1316 2.30595 25.1315 2.58455V23.7147C25.1318 23.9934 25.0795 24.2694 24.9776 24.5269C24.8757 24.7844 24.7262 25.0184 24.5377 25.2155C24.3492 25.4126 24.1253 25.5689 23.879 25.6755C23.6326 25.7821 23.3685 25.8369 23.1018 25.8367H2.87914C2.61266 25.8367 2.34878 25.7819 2.10259 25.6753C1.85641 25.5687 1.63273 25.4124 1.44435 25.2155C1.25596 25.0185 1.10656 24.7847 1.00468 24.5274C0.902804 24.2701 0.850441 23.9943 0.850586 23.7159V2.58455ZM10.4614 10.1385H13.7493V11.8637C14.2238 10.8719 15.4379 9.9793 17.2623 9.9793C20.7598 9.9793 21.5887 11.9549 21.5887 15.5796V22.2939H18.0492V16.4053C18.0492 14.341 17.5746 13.1762 16.3694 13.1762C14.6973 13.1762 14.002 14.4321 14.002 16.4053V22.2939H10.4614V10.1385ZM4.39118 22.1359H7.93178V9.9793H4.39118V22.1347V22.1359ZM8.43837 6.01437C8.44504 6.33114 8.3911 6.64611 8.2797 6.94081C8.1683 7.2355 8.0017 7.50397 7.78966 7.73047C7.57762 7.95697 7.32442 8.13693 7.04492 8.25979C6.76542 8.38265 6.46526 8.44594 6.16203 8.44594C5.85881 8.44594 5.55864 8.38265 5.27914 8.25979C4.99964 8.13693 4.74644 7.95697 4.5344 7.73047C4.32237 7.50397 4.15576 7.2355 4.04436 6.94081C3.93297 6.64611 3.87902 6.33114 3.8857 6.01437C3.8988 5.39259 4.14438 4.80089 4.56985 4.36599C4.99532 3.93109 5.56684 3.68756 6.16203 3.68756C6.75722 3.68756 7.32874 3.93109 7.75421 4.36599C8.17968 4.80089 8.42526 5.39259 8.43837 6.01437Z" fill="#484848"/>
</svg>
