<svg width="25" height="26" viewBox="0 0 25 26" fill="none" xmlns="http://www.w3.org/2000/svg">
<path fill-rule="evenodd" clip-rule="evenodd" d="M0.664063 2.58467C0.664063 2.02249 0.877942 1.48334 1.25865 1.08582C1.63936 0.688294 2.15571 0.464969 2.69411 0.464969H22.9305C23.1973 0.464514 23.4616 0.519014 23.7082 0.62535C23.9548 0.731685 24.1789 0.887768 24.3677 1.08466C24.5565 1.28155 24.7062 1.51539 24.8083 1.77279C24.9104 2.03018 24.9629 2.30607 24.9627 2.58467V23.7148C24.963 23.9935 24.9107 24.2695 24.8087 24.527C24.7068 24.7845 24.5572 25.0185 24.3685 25.2156C24.1799 25.4127 23.9559 25.569 23.7093 25.6756C23.4627 25.7822 23.1985 25.837 22.9316 25.8369H2.69411C2.42743 25.8369 2.16336 25.782 1.91699 25.6754C1.67062 25.5688 1.44678 25.4126 1.25826 25.2156C1.06974 25.0186 0.920228 24.7848 0.818274 24.5275C0.716319 24.2702 0.663918 23.9945 0.664063 23.716V2.58467ZM10.2819 10.1386H13.5722V11.8639C14.0471 10.8721 15.262 9.97943 17.0878 9.97943C20.5879 9.97943 21.4173 11.955 21.4173 15.5797V22.294H17.8753V16.4054C17.8753 14.3411 17.4003 13.1763 16.1942 13.1763C14.5209 13.1763 13.8251 14.4322 13.8251 16.4054V22.294H10.2819V10.1386ZM4.20725 22.136H7.75044V9.97943H4.20725V22.1349V22.136ZM8.2574 6.01449C8.26408 6.33126 8.2101 6.64624 8.09862 6.94093C7.98714 7.23562 7.82041 7.50409 7.60822 7.73059C7.39603 7.95709 7.14264 8.13705 6.86294 8.25991C6.58323 8.38277 6.28285 8.44606 5.9794 8.44606C5.67595 8.44606 5.37556 8.38277 5.09586 8.25991C4.81616 8.13705 4.56277 7.95709 4.35058 7.73059C4.13839 7.50409 3.97166 7.23562 3.86018 6.94093C3.7487 6.64624 3.69472 6.33126 3.7014 6.01449C3.71451 5.39271 3.96027 4.80101 4.38605 4.36611C4.81183 3.93121 5.38378 3.68768 5.9794 3.68768C6.57502 3.68768 7.14697 3.93121 7.57275 4.36611C7.99853 4.80101 8.24429 5.39271 8.2574 6.01449Z" fill="#484848"/>
</svg>
