<svg width="28" height="24" viewBox="0 0 28 24" fill="none" xmlns="http://www.w3.org/2000/svg">
<path d="M27.7696 3.28074C26.7643 3.74694 25.6844 4.06194 24.5491 4.20432C25.7206 3.47074 26.5969 2.31618 27.0148 0.956062C25.9142 1.64022 24.7097 2.1218 23.4536 2.37985C22.6089 1.43595 21.4901 0.810315 20.2708 0.600082C19.0516 0.38985 17.8001 0.606782 16.7108 1.2172C15.6214 1.82762 14.7551 2.79736 14.2463 3.97589C13.7375 5.15441 13.6147 6.47576 13.8969 7.73481C11.6669 7.61763 9.48536 7.01101 7.49384 5.95432C5.50233 4.89764 3.74536 3.41451 2.33698 1.60118C1.85541 2.47057 1.57851 3.47856 1.57851 4.55207C1.57798 5.51848 1.80537 6.47008 2.24052 7.32245C2.67567 8.17483 3.30512 8.90161 4.07302 9.43832C3.18246 9.40866 2.31154 9.15681 1.53277 8.70374V8.77934C1.53268 10.1348 1.98066 11.4485 2.8007 12.4976C3.62075 13.5467 4.76234 14.2665 6.03178 14.535C5.20564 14.769 4.33949 14.8034 3.49875 14.6358C3.85691 15.802 4.55458 16.8219 5.49408 17.5526C6.43358 18.2832 7.56787 18.6881 8.73818 18.7106C6.75152 20.3428 4.29801 21.2282 1.77234 21.2243C1.32495 21.2244 0.877929 21.197 0.433594 21.1424C2.99729 22.8675 5.98163 23.7831 9.02952 23.7795C19.347 23.7795 24.9874 14.8361 24.9874 7.07961C24.9874 6.82762 24.9814 6.5731 24.9705 6.3211C26.0676 5.49073 27.0147 4.46248 27.7672 3.28452L27.7696 3.28074Z" fill="#484848"/>
</svg>
