<svg width="28" height="24" viewBox="0 0 28 24" fill="none" xmlns="http://www.w3.org/2000/svg">
<path d="M28.0084 3.28074C27.0039 3.74694 25.9247 4.06194 24.7903 4.20432C25.9608 3.47074 26.8366 2.31618 27.2541 0.956062C26.1543 1.64022 24.9507 2.1218 23.6955 2.37985C22.8515 1.43595 21.7335 0.810315 20.5151 0.600082C19.2968 0.38985 18.0462 0.606782 16.9576 1.2172C15.8691 1.82762 15.0034 2.79736 14.4949 3.97589C13.9865 5.15441 13.8638 6.47576 14.1459 7.73481C11.9175 7.61763 9.73752 7.01101 7.74746 5.95432C5.75741 4.89764 4.00173 3.41451 2.59437 1.60118C2.11316 2.47057 1.83646 3.47856 1.83646 4.55207C1.83593 5.51848 2.06315 6.47008 2.49799 7.32245C2.93282 8.17483 3.5618 8.90161 4.32914 9.43832C3.43923 9.40866 2.56896 9.15681 1.79075 8.70374V8.77934C1.79066 10.1348 2.23832 11.4485 3.05776 12.4976C3.8772 13.5467 5.01796 14.2665 6.28647 14.535C5.46093 14.769 4.59542 14.8034 3.7553 14.6358C4.1132 15.802 4.81035 16.8219 5.74916 17.5526C6.68797 18.2832 7.82144 18.6881 8.99089 18.7106C7.00569 20.3428 4.55397 21.2282 2.03015 21.2243C1.58308 21.2244 1.13639 21.197 0.692383 21.1424C3.25421 22.8675 6.23636 23.7831 9.28202 23.7795C19.592 23.7795 25.2282 14.8361 25.2282 7.07961C25.2282 6.82762 25.2222 6.5731 25.2113 6.3211C26.3077 5.49073 27.254 4.46248 28.006 3.28452L28.0084 3.28074Z" fill="#484848"/>
</svg>
