<svg width="20" height="19" viewBox="0 0 20 19" fill="none" xmlns="http://www.w3.org/2000/svg">
<path d="M7.00049 9.5L9.00049 11.5L13.0005 7.5M19.0005 9.5C19.0005 10.6819 18.7677 11.8522 18.3154 12.9442C17.8631 14.0361 17.2002 15.0282 16.3644 15.864C15.5287 16.6997 14.5366 17.3626 13.4446 17.8149C12.3527 18.2672 11.1824 18.5 10.0005 18.5C8.81859 18.5 7.64827 18.2672 6.55634 17.8149C5.46441 17.3626 4.47225 16.6997 3.63653 15.864C2.8008 15.0282 2.13786 14.0361 1.68557 12.9442C1.23328 11.8522 1.00049 10.6819 1.00049 9.5C1.00049 7.11305 1.9487 4.82387 3.63653 3.13604C5.32435 1.44821 7.61354 0.5 10.0005 0.5C12.3874 0.5 14.6766 1.44821 16.3644 3.13604C18.0523 4.82387 19.0005 7.11305 19.0005 9.5Z" stroke="white" stroke-linecap="round" stroke-linejoin="round"/>
</svg>
