<svg width="14" height="12" viewBox="0 0 14 12" fill="none" xmlns="http://www.w3.org/2000/svg">
<path d="M5.1469 8.13662L4.79932 7.77719C4.8279 7.74955 4.84955 7.71762 4.86389 7.68373C4.87821 7.64988 4.88519 7.61423 4.88487 7.57869C4.88455 7.54315 4.87693 7.50757 4.86197 7.47388C4.84698 7.44015 4.8247 7.4085 4.79554 7.38127L4.78919 7.37534L4.78925 7.37529L2.92616 5.57362L2.03743 4.71419H3.27374H7.81242C9.01718 4.71419 10.1758 5.17684 11.0327 6.00543C11.8901 6.83457 12.375 7.96276 12.375 9.14282V10.7143C12.375 10.7845 12.4037 10.8555 12.4605 10.9104C12.518 10.966 12.5993 11 12.6875 11C12.7757 11 12.857 10.966 12.9144 10.9104C12.9713 10.8555 13 10.7845 13 10.7143V9.14282C13 7.82223 12.4577 6.55219 11.4866 5.6131C10.5149 4.67346 9.19356 4.14274 7.81242 4.14274H3.27374H2.03743L2.92616 3.28331L4.78919 1.48169C4.84602 1.42672 4.87472 1.35581 4.87472 1.28556C4.87472 1.21535 4.84606 1.14449 4.7893 1.08953L5.1469 8.13662ZM5.1469 8.13662L4.79932 7.77719C4.7707 7.80486 4.73575 7.82761 4.69609 7.84331C4.65639 7.85901 4.61331 7.86711 4.56951 7.86674C4.5257 7.86637 4.48281 7.85755 4.44349 7.84121C4.40418 7.82489 4.36974 7.80161 4.34171 7.77354L4.34176 7.77349L4.33552 7.76745L1.08553 4.6246M5.1469 8.13662L1.08553 4.6246M1.08553 4.6246C1.0287 4.56962 1 4.49872 1 4.42846M1.08553 4.6246L1 4.42846M1 4.42846C1 4.35823 1.02868 4.28735 1.08547 4.23238M1 4.42846L1.08547 4.23238M1.08547 4.23238C1.08549 4.23237 1.08551 4.23235 1.08553 4.23233M1.08547 4.23238L1.08553 4.23233M1.08553 4.23233L4.33546 1.08953L1.08553 4.23233ZM4.56238 1C4.47424 1 4.39293 1.034 4.33552 1.08948L4.56238 1ZM4.56238 1C4.6505 1 4.73178 1.03398 4.78919 1.08943L4.56238 1Z" fill="white" stroke="white"/>
</svg>
