<svg width="19" height="21" viewBox="0 0 19 21" fill="none" xmlns="http://www.w3.org/2000/svg">
<path d="M12.6878 5.01856L5.50331 12.2031C5.29493 12.4043 5.12872 12.6451 5.01438 12.9113C4.90003 13.1774 4.83985 13.4637 4.83733 13.7534C4.83481 14.0431 4.89001 14.3304 4.99971 14.5985C5.10941 14.8667 5.27142 15.1103 5.47627 15.3151C5.68112 15.52 5.92471 15.682 6.19284 15.7917C6.46097 15.9014 6.74826 15.9566 7.03796 15.954C7.32765 15.9515 7.61394 15.8913 7.88012 15.777C8.1463 15.6627 8.38705 15.4964 8.58831 15.2881L15.5852 8.10356C16.38 7.28059 16.8198 6.17836 16.8099 5.03427C16.8 3.89017 16.3411 2.79575 15.532 1.98672C14.723 1.17769 13.6286 0.718786 12.4845 0.708844C11.3404 0.698902 10.2382 1.13872 9.41519 1.93357L2.41722 9.11698C1.18965 10.3446 0.5 12.0095 0.5 13.7456C0.5 15.4816 1.18965 17.1466 2.41722 18.3742C3.6448 19.6017 5.30975 20.2914 7.04581 20.2914C8.78186 20.2914 10.4468 19.6017 11.6744 18.3742L18.5 11.5638" stroke="white" stroke-linecap="round" stroke-linejoin="round"/>
</svg>
