<svg width="1389" height="35" viewBox="0 0 1389 35" fill="none" xmlns="http://www.w3.org/2000/svg">
<path d="M54.3494 0H1334.65C1336.43 0 1338.2 0.00209584 1339.97 0.006587C1341.74 0.0110781 1343.5 0.0176651 1345.25 0.026348C1347 0.0350308 1348.72 0.0458096 1350.43 0.0589835C1352.13 0.0718582 1353.8 0.087128 1355.44 0.104194C1357.1 0.121261 1358.7 0.140423 1360.27 0.161681C1361.84 0.182939 1363.37 0.205993 1364.84 0.230844C1366.33 0.255695 1367.75 0.282343 1369.13 0.310786C1370.51 0.33923 1371.82 0.369471 1373.08 0.401208C1374.34 0.432945 1375.54 0.46588 1376.67 0.500612C1377.79 0.535343 1378.85 0.571272 1379.84 0.608698C1380.82 0.645825 1381.74 0.684449 1382.58 0.723971C1383.43 0.763493 1384.19 0.803913 1384.86 0.845531C1385.54 0.886849 1386.15 0.929066 1386.66 0.971881C1387.18 1.015 1387.61 1.05841 1387.95 1.10242C1388.3 1.14644 1388.56 1.19075 1388.74 1.23536C1388.92 1.27997 1389 1.32458 1389 1.3695V33.6305C1389 33.6754 1388.92 33.72 1388.74 33.7646C1388.56 33.8096 1388.3 33.8539 1387.95 33.8976C1387.61 33.9416 1387.18 33.9853 1386.66 34.0281C1386.15 34.0709 1385.54 34.1132 1384.86 34.1548C1384.19 34.1961 1383.43 34.2365 1382.58 34.276C1381.74 34.3156 1380.82 34.3542 1379.84 34.3913C1378.85 34.4287 1377.79 34.4647 1376.67 34.4994C1375.54 34.5341 1374.34 34.5674 1373.08 34.5988C1371.82 34.6305 1370.51 34.6608 1369.13 34.6892C1367.75 34.7177 1366.33 34.7443 1364.84 34.7692C1363.37 34.7943 1361.84 34.8171 1360.27 34.8383C1358.7 34.8596 1357.1 34.8787 1355.44 34.8958C1353.8 34.9129 1352.13 34.9281 1350.43 34.941C1348.72 34.9542 1347 34.965 1345.25 34.9737C1343.5 34.9823 1341.74 34.9889 1339.97 34.9934C1338.2 34.9979 1336.43 35 1334.65 35H54.3494C52.5671 35 50.7966 34.9979 49.0262 34.9934C47.2557 34.9889 45.4972 34.9823 43.7505 34.9737C42.0038 34.965 40.2808 34.9542 38.5698 34.941C36.8706 34.9281 35.1952 34.9129 33.5555 34.8958C31.9039 34.8787 30.2997 34.8596 28.7313 34.8383C27.1628 34.8171 25.63 34.7943 24.1566 34.7692C22.6713 34.7443 21.2455 34.7177 19.8671 34.6892C18.4888 34.6608 17.1817 34.6305 15.9222 34.5988C14.6627 34.5674 13.4626 34.5341 12.3338 34.4994C11.205 34.4647 10.1474 34.4287 9.16122 34.3913C8.17499 34.3542 7.26006 34.3156 6.41642 34.276C5.57278 34.2365 4.81231 34.1961 4.13502 34.1548C3.45773 34.1132 2.85174 34.0709 2.3408 34.0281C1.81798 33.9853 1.39022 33.9416 1.04564 33.8976C0.701051 33.8539 0.439644 33.8096 0.26141 33.7646C0.0831781 33.72 0 33.6754 0 33.6305V1.3695C0 1.32458 0.0831781 1.27997 0.26141 1.23536C0.439644 1.19075 0.701051 1.14644 1.04564 1.10242C1.39022 1.05841 1.81798 1.015 2.3408 0.971881C2.85174 0.929066 3.45773 0.886849 4.13502 0.845531C4.81231 0.803913 5.57278 0.763493 6.41642 0.723971C7.26006 0.684449 8.17499 0.645825 9.16122 0.608698C10.1474 0.571272 11.205 0.535343 12.3338 0.500612C13.4626 0.46588 14.6627 0.432945 15.9222 0.401208C17.1817 0.369471 18.4888 0.33923 19.8671 0.310786C21.2455 0.282343 22.6713 0.255695 24.1566 0.230844C25.63 0.205993 27.1628 0.182939 28.7313 0.161681C30.2997 0.140423 31.9039 0.121261 33.5555 0.104194C35.1952 0.087128 36.8706 0.0718582 38.5698 0.0589835C40.2808 0.0458096 42.0038 0.0350308 43.7505 0.026348C45.4972 0.0176651 47.2557 0.0110781 49.0262 0.006587C50.7966 0.00209584 52.5671 0 54.3494 0Z" fill="#1A338A"/>
</svg>
