<svg width="11" height="11" viewBox="0 0 11 11" fill="none" xmlns="http://www.w3.org/2000/svg">
<path d="M6.96125 2.98757L3.66825 6.28057C3.57274 6.37282 3.49656 6.48316 3.44415 6.60517C3.39174 6.72717 3.36416 6.85839 3.363 6.99117C3.36185 7.12395 3.38715 7.25563 3.43743 7.37852C3.48771 7.50142 3.56197 7.61307 3.65586 7.70696C3.74975 7.80086 3.8614 7.87511 3.9843 7.92539C4.1072 7.97567 4.23888 8.00097 4.37166 7.99982C4.50443 7.99867 4.63565 7.97108 4.75766 7.91867C4.87966 7.86626 4.99001 7.79008 5.08225 7.69457L8.28925 4.40157C8.65357 4.02437 8.85516 3.51916 8.8506 2.99477C8.84605 2.47037 8.63571 1.96875 8.26489 1.59793C7.89407 1.22712 7.39245 1.01678 6.86806 1.01222C6.34366 1.00766 5.83846 1.20925 5.46125 1.57357L2.25375 4.86607C1.6911 5.42873 1.375 6.19185 1.375 6.98757C1.375 7.78329 1.6911 8.54641 2.25375 9.10907C2.81641 9.67173 3.57954 9.98782 4.37525 9.98782C5.17097 9.98782 5.9341 9.67173 6.49675 9.10907L9.62525 5.98757" stroke="white" stroke-linecap="round" stroke-linejoin="round"/>
</svg>
