<svg width="13" height="12" viewBox="0 0 13 12" fill="none" xmlns="http://www.w3.org/2000/svg">
<path d="M4.66667 6L5.88889 7.22222L8.33333 4.77778M12 6C12 6.72227 11.8577 7.43747 11.5813 8.10476C11.3049 8.77205 10.8998 9.37836 10.3891 9.88909C9.87836 10.3998 9.27205 10.8049 8.60476 11.0813C7.93747 11.3577 7.22227 11.5 6.5 11.5C5.77773 11.5 5.06253 11.3577 4.39524 11.0813C3.72795 10.8049 3.12163 10.3998 2.61091 9.88909C2.10019 9.37836 1.69506 8.77205 1.41866 8.10476C1.14226 7.43747 1 6.72227 1 6C1 4.54131 1.57946 3.14236 2.61091 2.11091C3.64236 1.07946 5.04131 0.5 6.5 0.5C7.95869 0.5 9.35764 1.07946 10.3891 2.11091C11.4205 3.14236 12 4.54131 12 6Z" stroke="white" stroke-linecap="round" stroke-linejoin="round"/>
</svg>
