<svg width="22" height="18" viewBox="0 0 22 18" fill="none" xmlns="http://www.w3.org/2000/svg">
<path d="M1.23423 5.87651L6.48419 0.733677L6.48425 0.733624C6.63586 0.58518 6.84359 0.5 7.06231 0.5C7.28104 0.5 7.4888 0.5852 7.64042 0.733677C7.79157 0.881843 7.87454 1.08052 7.87454 1.28546C7.87454 1.49042 7.79155 1.68912 7.64037 1.83729C7.64035 1.83731 7.64033 1.83733 7.64031 1.83735L4.63076 4.78548L3.75573 5.64266H4.98065H12.3124C14.6198 5.64266 16.8306 6.54066 18.4591 8.13592C20.0873 9.73084 21 11.8918 21 14.1428V16.7143C21 16.9193 20.917 17.1181 20.7657 17.2662C20.6141 17.4148 20.4063 17.5 20.1875 17.5C19.9687 17.5 19.7609 17.4148 19.6093 17.2662C19.458 17.1181 19.375 16.9193 19.375 16.7143V14.1428C19.375 12.3018 18.6283 10.5384 17.3027 9.23986C15.9775 7.94166 14.1822 7.21413 12.3124 7.21413H4.98065H3.75573L4.63076 8.07131L7.64037 11.0195L7.64031 11.0196L7.64662 11.0255C7.72379 11.0985 7.78476 11.1853 7.82649 11.2805C7.86821 11.3756 7.89001 11.4775 7.89092 11.5804C7.89184 11.6833 7.87184 11.7855 7.83184 11.8813C7.79182 11.9771 7.73245 12.0648 7.65664 12.1391C7.5808 12.2134 7.49006 12.2727 7.38943 12.313C7.28879 12.3533 7.1806 12.3738 7.07129 12.3728C6.96197 12.3719 6.85419 12.3496 6.75432 12.3076C6.65448 12.2656 6.56485 12.2048 6.4904 12.1293L6.49046 12.1292L6.48425 12.1232L1.23423 6.98028C1.23421 6.98026 1.2342 6.98025 1.23418 6.98023C1.08299 6.83206 1 6.63335 1 6.42839C1 6.22344 1.08299 6.02473 1.23418 5.87656C1.2342 5.87654 1.23421 5.87653 1.23423 5.87651Z" fill="white" stroke="white"/>
</svg>
